<svg width="90" height="22" viewBox="0 0 90 22" fill="none" xmlns="http://www.w3.org/2000/svg">
<path d="M83.7783 16.6437H73.2061L71.1219 21.5371H67.0742L76.5892 0.3927H80.4556L90.0008 21.5371H85.8928L83.7783 16.6437ZM82.4795 13.5627L78.4922 4.31952L74.5352 13.5627H82.4795Z" fill="black"/>
<path d="M61.2607 10.5118C62.5294 10.9146 63.5161 11.569 64.2209 12.4752C64.9459 13.3613 65.3084 14.4084 65.3084 15.6167C65.3084 16.8853 64.8955 17.9929 64.0699 18.9394C63.2443 19.8657 62.1367 20.5806 60.7472 21.084C59.3779 21.5875 57.8776 21.8392 56.2465 21.8392C54.8368 21.8392 53.4171 21.6479 51.9874 21.2653C50.5777 20.8625 49.2688 20.2684 48.0605 19.4831L49.3292 16.6135C50.2555 17.2377 51.2826 17.721 52.4103 18.0634C53.538 18.3856 54.6556 18.5467 55.7632 18.5467C57.354 18.5467 58.673 18.2346 59.7202 17.6103C60.7875 16.986 61.3211 16.1302 61.3211 15.0428C61.3211 14.1164 60.9385 13.4116 60.1733 12.9283C59.4081 12.445 58.3508 12.2034 57.0016 12.2034H52.078V9.12231H56.6996C57.8675 9.12231 58.7838 8.88066 59.4483 8.39736C60.1129 7.91406 60.4451 7.25959 60.4451 6.43395C60.4451 5.44721 59.992 4.68198 59.0859 4.13827C58.1998 3.59455 57.062 3.3227 55.6725 3.3227C54.7261 3.3227 53.7494 3.46366 52.7425 3.74559C51.7357 4.00737 50.7892 4.40006 49.9031 4.92363L48.6647 1.75197C49.7521 1.16798 50.8999 0.735022 52.1082 0.453096C53.3366 0.151032 54.5549 0 55.7632 0C57.3339 0 58.7737 0.241651 60.0827 0.724953C61.4117 1.20825 62.469 1.903 63.2543 2.80919C64.0397 3.69524 64.4324 4.74239 64.4324 5.95065C64.4324 6.9978 64.1505 7.91406 63.5866 8.69942C63.0228 9.48479 62.2475 10.0889 61.2607 10.5118Z" fill="black"/>
<path d="M47.2088 0.3927L38.0261 17.4593C37.2206 18.9696 36.254 20.1074 35.1262 20.8726C34.0187 21.6177 32.8104 21.9902 31.5015 21.9902C30.4543 21.9902 29.4173 21.7687 28.3902 21.3257L29.3568 18.2446C30.1825 18.5064 30.8672 18.6373 31.4109 18.6373C32.6795 18.6373 33.7267 17.9829 34.5523 16.6739L34.8846 16.1604L26.457 0.3927H30.6557L36.9084 12.8075L43.3424 0.3927H47.2088Z" fill="black"/>
<path d="M19.3925 21.5371L19.3623 7.52139L12.4148 19.1206H10.6628L3.71538 7.70263V21.5371H0V0.3927H3.23208L11.5992 14.3782L19.8758 0.3927H23.0776L23.1381 21.5371H19.3925Z" fill="black"/>
</svg>
